<mxfile host="Electron" agent="Mozilla/5.0 (Windows NT 10.0; Win64; x64) AppleWebKit/537.36 (KHTML, like Gecko) draw.io/24.7.17 Chrome/128.0.6613.36 Electron/32.0.1 Safari/537.36" version="24.7.17">
  <diagram name="Page-1" id="vY3U5jJhQrWbOwVrr4e0">
    <mxGraphModel dx="2118" dy="2074" grid="1" gridSize="10" guides="1" tooltips="1" connect="1" arrows="1" fold="1" page="1" pageScale="1" pageWidth="850" pageHeight="1100" math="0" shadow="0">
      <root>
        <mxCell id="0" />
        <mxCell id="1" parent="0" />
        <mxCell id="nz7CX37NrNBbY6WZYxdY-17" value="" style="whiteSpace=wrap;html=1;dashed=1;dashPattern=12 12;" parent="1" vertex="1">
          <mxGeometry x="-665.25" y="-950" width="773" height="550" as="geometry" />
        </mxCell>
        <mxCell id="nz7CX37NrNBbY6WZYxdY-6" value="" style="shape=mxgraph.mockup.containers.marginRect;rectMarginTop=10;strokeWidth=1;dashed=0;rounded=1;arcSize=5;recursiveResize=0;html=1;whiteSpace=wrap;fillColor=#dae8fc;strokeColor=#6c8ebf;fontStyle=1" parent="1" vertex="1">
          <mxGeometry x="-462.25" y="-920" width="150" height="420" as="geometry" />
        </mxCell>
        <mxCell id="nz7CX37NrNBbY6WZYxdY-94" value="" style="edgeStyle=orthogonalEdgeStyle;rounded=0;orthogonalLoop=1;jettySize=auto;html=1;" parent="nz7CX37NrNBbY6WZYxdY-6" source="nz7CX37NrNBbY6WZYxdY-2" target="nz7CX37NrNBbY6WZYxdY-8" edge="1">
          <mxGeometry relative="1" as="geometry" />
        </mxCell>
        <mxCell id="nz7CX37NrNBbY6WZYxdY-7" value="IoT Data Ingestion and Processing" style="shape=rect;strokeColor=#6c8ebf;fillColor=#dae8fc;strokeWidth=1;dashed=0;rounded=1;arcSize=20;fontSize=17;spacing=2;spacingTop=-2;align=left;autosize=1;spacingLeft=4;resizeWidth=0;resizeHeight=0;perimeter=none;html=1;whiteSpace=wrap;gradientColor=#7ea6e0;" parent="nz7CX37NrNBbY6WZYxdY-6" vertex="1">
          <mxGeometry x="5" width="145" height="50" as="geometry" />
        </mxCell>
        <mxCell id="nz7CX37NrNBbY6WZYxdY-2" value="" style="image;sketch=0;aspect=fixed;html=1;points=[];align=center;fontSize=12;image=img/lib/mscae/Azure_IoT_Hub.svg;" parent="nz7CX37NrNBbY6WZYxdY-6" vertex="1">
          <mxGeometry x="47.75" y="80" width="60" height="60" as="geometry" />
        </mxCell>
        <mxCell id="nz7CX37NrNBbY6WZYxdY-126" value="" style="edgeStyle=orthogonalEdgeStyle;rounded=0;orthogonalLoop=1;jettySize=auto;html=1;" parent="nz7CX37NrNBbY6WZYxdY-6" source="nz7CX37NrNBbY6WZYxdY-8" target="nz7CX37NrNBbY6WZYxdY-89" edge="1">
          <mxGeometry relative="1" as="geometry" />
        </mxCell>
        <mxCell id="nz7CX37NrNBbY6WZYxdY-8" value="" style="image;aspect=fixed;html=1;points=[];align=center;fontSize=12;image=img/lib/azure2/databases/Data_Factory.svg;" parent="nz7CX37NrNBbY6WZYxdY-6" vertex="1">
          <mxGeometry x="43.75" y="200" width="68" height="68" as="geometry" />
        </mxCell>
        <mxCell id="nz7CX37NrNBbY6WZYxdY-63" value="Data Factory" style="whiteSpace=wrap;html=1;verticalAlign=middle;labelBackgroundColor=default;fontStyle=1;dashed=1;dashPattern=1 4;opacity=90;rounded=0;glass=0;shadow=0;gradientColor=none;strokeColor=#FFFFFF;" parent="nz7CX37NrNBbY6WZYxdY-6" vertex="1">
          <mxGeometry x="32.75" y="280" width="90" height="18" as="geometry" />
        </mxCell>
        <mxCell id="nz7CX37NrNBbY6WZYxdY-89" value="" style="image;aspect=fixed;html=1;points=[];align=center;fontSize=12;image=img/lib/azure2/databases/SQL_Data_Warehouses.svg;" parent="nz7CX37NrNBbY6WZYxdY-6" vertex="1">
          <mxGeometry x="45.5" y="320" width="64" height="65" as="geometry" />
        </mxCell>
        <mxCell id="nz7CX37NrNBbY6WZYxdY-62" value="Azure IoT Hub" style="whiteSpace=wrap;html=1;verticalAlign=middle;labelBackgroundColor=default;fontStyle=1;dashed=1;dashPattern=1 4;opacity=90;rounded=0;glass=0;shadow=0;gradientColor=none;strokeColor=#FFFFFF;" parent="nz7CX37NrNBbY6WZYxdY-6" vertex="1">
          <mxGeometry x="32.75" y="150" width="90" height="18" as="geometry" />
        </mxCell>
        <mxCell id="nz7CX37NrNBbY6WZYxdY-136" value="Lakehouse" style="whiteSpace=wrap;html=1;verticalAlign=middle;labelBackgroundColor=default;fontStyle=1;dashed=1;dashPattern=1 4;opacity=90;rounded=0;glass=0;shadow=0;gradientColor=none;strokeColor=#FFFFFF;" parent="nz7CX37NrNBbY6WZYxdY-6" vertex="1">
          <mxGeometry x="32.75" y="390" width="90" height="18" as="geometry" />
        </mxCell>
        <mxCell id="nz7CX37NrNBbY6WZYxdY-83" value="" style="edgeStyle=orthogonalEdgeStyle;rounded=0;orthogonalLoop=1;jettySize=auto;html=1;" parent="1" target="nz7CX37NrNBbY6WZYxdY-6" edge="1">
          <mxGeometry relative="1" as="geometry">
            <mxPoint x="-528.2499999999998" y="-709.9999999999998" as="sourcePoint" />
          </mxGeometry>
        </mxCell>
        <mxCell id="nz7CX37NrNBbY6WZYxdY-82" value="" style="edgeStyle=orthogonalEdgeStyle;rounded=0;orthogonalLoop=1;jettySize=auto;html=1;" parent="1" source="nz7CX37NrNBbY6WZYxdY-21" edge="1">
          <mxGeometry relative="1" as="geometry">
            <mxPoint x="-592.25" y="-710.0000000000002" as="targetPoint" />
          </mxGeometry>
        </mxCell>
        <mxCell id="nz7CX37NrNBbY6WZYxdY-21" value="" style="shape=image;verticalLabelPosition=bottom;verticalAlign=top;imageAspect=0;aspect=fixed;image=data:image/svg+xml,PHN2ZyB4bWxuczp4bGluaz0iaHR0cDovL3d3dy53My5vcmcvMTk5OS94bGluayIgeG1sbnM9Imh0dHA6Ly93d3cudzMub3JnLzIwMDAvc3ZnIiB4bWw6c3BhY2U9InByZXNlcnZlIiB2ZXJzaW9uPSIxLjEiIGlkPSJCbG9vZF94NUZfcHJlc3N1cmVfeDVGX3Rlc3QiIHZpZXdCb3g9IjAgMCA1MTIgNTEyIiBoZWlnaHQ9IjgwMHB4IiB3aWR0aD0iODAwcHgiIGZpbGw9IiMwMDAwMDAiPiYjeGE7JiN4YTs8Zz4mI3hhOyYjeGE7PGc+JiN4YTsmI3hhOzxwYXRoIGQ9Ik03MS40NDksMTI5LjMzN3YxMGMzMS41ODMsMCw1Ny4yNzgsMjUuNjk1LDU3LjI3OCw1Ny4yNzloMTBDMTM4LjcyOCwxNTkuNTE5LDEwOC41NDYsMTI5LjMzNyw3MS40NDksMTI5LjMzN3oiLz4mI3hhOyYjeGE7PHJlY3QgeT0iMzE3LjA5IiB4PSIxMzQuMjQ1IiB3aWR0aD0iMTAiIGhlaWdodD0iODUiLz4mI3hhOyYjeGE7PHJlY3QgeT0iMjkyLjA2OCIgeD0iMTc4LjU3OCIgd2lkdGg9IjEwIiBoZWlnaHQ9IjgzLjQxMiIvPiYjeGE7JiN4YTs8cmVjdCB5PSIzODkuNDgiIHg9IjE3OC41NzgiIHdpZHRoPSIxMCIgaGVpZ2h0PSIxNSIvPiYjeGE7JiN4YTs8Zz4mI3hhOyYjeGE7PHBhdGggZD0iTTI1MC41MjMsMjU0LjgxNHY0Ni4yMzlIMzUyLjkydjIzLjAwOGMwLDE0Ljc1Mi0xMi4wMDIsMjYuNzU0LTI2Ljc1NSwyNi43NTRoLTI1LjQyICAgICBjLTE2LjE3NSwwLTI5LjMzNCwxMy4xNTgtMjkuMzM0LDI5LjMzMmMwLDE2LjE3NiwxMy4xNTksMjkuMzM0LDI5LjMzNCwyOS4zMzRoODAuNDFjMTguODQsMCwzNC4xNjcsMTUuMzI4LDM0LjE2NywzNC4xNjYgICAgIGMwLDE4Ljg0LTE1LjMyNywzNC4xNjgtMzQuMTY3LDM0LjE2OGgtMzcuMjQ0djEwaDM3LjI0NGMyNC4zNTQsMCw0NC4xNjctMTkuODE0LDQ0LjE2Ny00NC4xNjhzLTE5LjgxMy00NC4xNjYtNDQuMTY3LTQ0LjE2NiAgICAgaC04MC40MWMtMTAuNjYxLDAtMTkuMzM0LTguNjcyLTE5LjMzNC0xOS4zMzRjMC0xMC42Niw4LjY3My0xOS4zMzIsMTkuMzM0LTE5LjMzMmgyNS40MmMyMC4yNjgsMCwzNi43NTUtMTYuNDg4LDM2Ljc1NS0zNi43NTQgICAgIHYtMjMuMDA4aDEwMi4zOTZ2LTQ2LjIzOVY1Ni4yNTFIMjUwLjUyM1YyNTQuODE0eiBNNDU1LjMxNSwyOTEuMDUzSDI2MC41MjR2LTI2LjIzOGgxOTQuNzkxVjI5MS4wNTN6IE00NTUuMzE1LDY2LjI1MXYxODguNTYzICAgICBIMjYwLjUyNFY2Ni4yNTFINDU1LjMxNXoiLz4mI3hhOyYjeGE7PHBhdGggZD0iTTQzNS4yNTMsODcuODg2SDMyMS40MTF2MTAzLjM4OGgxMTMuODQyVjg3Ljg4NnogTTQyNS4yNTMsMTgxLjI3NGgtOTMuODQyVjk3Ljg4Nmg5My44NDJWMTgxLjI3NHoiLz4mI3hhOyYjeGE7PHJlY3QgeT0iMTA3LjQ4MSIgeD0iMzU3LjQyIiB3aWR0aD0iMTAiIGhlaWdodD0iMjYuODU2Ii8+JiN4YTsmI3hhOzxyZWN0IHk9IjEwNy40ODEiIHg9IjM3My43NDkiIHdpZHRoPSIxMCIgaGVpZ2h0PSIyNi44NTYiLz4mI3hhOyYjeGE7PHBvbHlnb24gcG9pbnRzPSIzNzUuNzQ5LDE1Ni4wNDMgMzg3LjA4NywxNTYuMDQzIDM4Ny4wODcsMTcyLjg1OSAzOTcuMDg3LDE3Mi44NTkgMzk3LjA4NywxNDYuMDQzIDM3NS43NDksMTQ2LjA0MyIvPiYjeGE7JiN4YTs8cmVjdCB5PSIxNDYuMDAxIiB4PSI0MDMuNDE1IiB3aWR0aD0iMTAiIGhlaWdodD0iMjYuODU3Ii8+JiN4YTsmI3hhOzxwYXRoIGQ9Ik00MTMuNDExLDEwNy40OTNoLTIzLjMzNHYyNi44MzNoMjMuMzM0VjEwNy40OTN6IE00MDMuNDExLDEyNC4zMjZoLTMuMzM0di02LjgzM2gzLjMzNFYxMjQuMzI2eiIvPiYjeGE7JiN4YTs8cmVjdCB5PSIxNTcuODE0IiB4PSIzMzkuNDQ0IiB3aWR0aD0iMjAuNjU2IiBoZWlnaHQ9IjEwIi8+JiN4YTsmI3hhOzxyZWN0IHk9IjExNS45MSIgeD0iMjc2LjQxMSIgd2lkdGg9IjM1LjQ1MSIgaGVpZ2h0PSIxMCIvPiYjeGE7JiN4YTs8cmVjdCB5PSIxNTYuOTUxIiB4PSIyNzYuNDExIiB3aWR0aD0iMzUuNDUxIiBoZWlnaHQ9IjEwIi8+JiN4YTsmI3hhOzxyZWN0IHk9IjI3Mi45MzQiIHg9IjMwNC45MTEiIHdpZHRoPSIxMzcuNzU5IiBoZWlnaHQ9IjEwIi8+JiN4YTsmI3hhOzxyZWN0IHk9IjI3Mi45MzQiIHg9IjI3My4xNyIgd2lkdGg9IjE3LjI0MSIgaGVpZ2h0PSIxMCIvPiYjeGE7JiN4YTs8cGF0aCBkPSJNNDIwLjMyMiwyMDcuMjUxYy04LjIzMywwLTE0LjkzMSw2LjY5OC0xNC45MzEsMTQuOTMxczYuNjk3LDE0LjkzMSwxNC45MzEsMTQuOTMxczE0LjkzMS02LjY5OCwxNC45MzEtMTQuOTMxICAgICBTNDI4LjU1NiwyMDcuMjUxLDQyMC4zMjIsMjA3LjI1MXogTTQyMC4zMjIsMjI3LjExM2MtMi43MTksMC00LjkzMS0yLjIxMi00LjkzMS00LjkzMXMyLjIxMi00LjkzMSw0LjkzMS00LjkzMSAgICAgczQuOTMxLDIuMjEyLDQuOTMxLDQuOTMxUzQyMy4wNDEsMjI3LjExMyw0MjAuMzIyLDIyNy4xMTN6Ii8+JiN4YTsmI3hhOzxwYXRoIGQ9Ik0zNzkuNTI4LDIwNy4yNTFjLTguMjMzLDAtMTQuOTMyLDYuNjk4LTE0LjkzMiwxNC45MzFzNi42OTgsMTQuOTMxLDE0LjkzMiwxNC45MzFjOC4yMzIsMCwxNC45My02LjY5OCwxNC45My0xNC45MzEgICAgIFMzODcuNzYxLDIwNy4yNTEsMzc5LjUyOCwyMDcuMjUxeiBNMzc5LjUyOCwyMjcuMTEzYy0yLjcxOSwwLTQuOTMyLTIuMjEyLTQuOTMyLTQuOTMxczIuMjEzLTQuOTMxLDQuOTMyLTQuOTMxICAgICBzNC45MywyLjIxMiw0LjkzLDQuOTMxUzM4Mi4yNDcsMjI3LjExMywzNzkuNTI4LDIyNy4xMTN6Ii8+JiN4YTsmI3hhOzxyZWN0IHk9IjIxMC4xNzUiIHg9IjI3Ni40MTEiIHdpZHRoPSI2Ny41IiBoZWlnaHQ9IjEwIi8+JiN4YTsmI3hhOzxyZWN0IHk9IjIyNi4yOTQiIHg9IjI3Ni40MTEiIHdpZHRoPSI2Ny41IiBoZWlnaHQ9IjEwIi8+JiN4YTsmI3hhOzwvZz4mI3hhOyYjeGE7PHBhdGggZD0iTTE0Mi45ODcsNDQ3LjY0Nmg2Mi4wNzhWMjcxLjUzMUgxMDAuNzd2LTE4LjIyMmMwLTIxLjM0Mi05LjI0My00Mi4yMjItMjUuMzYxLTU3LjI4NCAgICBjLTEyLjA3NC0xMS4yODMtMTguNzI0LTI2LjU5My0xOC43MjQtNDMuMTA5VjExNC45MmMwLTkuMzkzLDcuNjQyLTE3LjAzNCwxNy4wMzQtMTcuMDM0aDQ1LjA0OWMxLjE1MiwwLDIuMDksMC45MzgsMi4wOSwyLjA5MSAgICBjMCw4LjYxLTcuMDA2LDE1LjYxNS0xNS42MTYsMTUuNjE1SDcxLjc1NXYxMGgzMy40ODZjNi41MzIsMCwxMi40OTctMi40NjEsMTcuMDI2LTYuNDk5YzMuNjMzLDIuOTA1LDguMTk2LDQuNTYyLDEzLjA2Myw0LjU2MiAgICBjNi4zODYsMCwxMi4xMDQtMi44NzksMTUuOTQ5LTcuMzk2YzMuODQ0LDQuNTE3LDkuNTYsNy4zOTYsMTUuOTQyLDcuMzk2YzkuMTQ2LDAsMTYuOTIyLTUuODk4LDE5Ljc3Mi0xNC4wODIgICAgYzIuNTU0LDUuMDkxLDMuOTQxLDEwLjc1NSwzLjk0MSwxNi41MTd2NTYuMjM5YzAsNi40NDUtMi4wMzcsMTIuNTcyLTUuODg5LDE3LjcxN2MtNy40NTIsOS45NDMtMTEuMzkxLDIxLjQ1Mi0xMS4zOTEsMzMuMjgyICAgIHYyNi4zMjloMTB2LTI2LjMyOWMwLTkuNjUsMy4yNDgtMTkuMDg2LDkuMzk0LTI3LjI4N2M1LjE1OS02Ljg5LDcuODg2LTE1LjA4OSw3Ljg4Ni0yMy43MTJ2LTU2LjIzOSAgICBjMC0xMS44OTktNC42My0yMy40OC0xMi43NjQtMzIuMTE3VjU4LjQyNWMwLTUuNTkyLTIuMTgxLTEwLjg1My02LjEzNC0xNC44MDdjLTMuOTUtMy45NjItOS4yMTItNi4xNDUtMTQuODE2LTYuMTQ1ICAgIGMtNC4xOTcsMC04LjEwMSwxLjI1NC0xMS4zODEsMy4zODljLTAuODE4LTMuOTcyLTIuNzY5LTcuNjE3LTUuNjk5LTEwLjUzN2MtMy45NTktMy45NTktOS4yMTktNi4xNC0xNC44MTItNi4xNCAgICBjLTYuMzgxLDAtMTIuMDk1LDIuODc5LTE1LjkzOSw3LjM5NmMtMC4zNjUtMC40MjktMC43MzctMC44NTQtMS4xNC0xLjI1N2MtMy45NTgtMy45NTktOS4yMTUtNi4xNC0xNC44MDItNi4xNCAgICBjLTEwLjA4MSwwLTE4LjUxOSw3LjE1OS0yMC41MDUsMTYuNjU5Yy0zLjM1OC0yLjE4OC03LjI3Ny0zLjM3MS0xMS4zODctMy4zNzFjLTExLjU1MiwwLTIwLjk1LDkuMzk4LTIwLjk1LDIwLjk1MXYyMi4xNGgxMCAgICB2LTIyLjE0YzAtNi4wMzgsNC45MTItMTAuOTUxLDEwLjk1LTEwLjk1MWMyLjkyOCwwLDUuNjc1LDEuMTM4LDcuNzQsMy4yMWMyLjA2NCwyLjA2NCwzLjIwMSw0LjgxNCwzLjIwMSw3Ljc0MWgxMFY0NS4xMzYgICAgYzAtNi4wMzgsNC45MTItMTAuOTUsMTAuOTUtMTAuOTVjMi45MTUsMCw1LjY2LDEuMTQsNy43MywzLjIxMWMyLjA2OSwyLjA2OSwzLjIxLDQuODE4LDMuMjEsNy43Mzl2OS42MWgxMHYtOS42MSAgICBjMC02LjAzOCw0LjkwOC0xMC45NSwxMC45NC0xMC45NWMyLjkyMiwwLDUuNjcsMS4xNCw3Ljc0NiwzLjIxN2MyLjA2NiwyLjA1OSwzLjIwNCw0LjgwNSwzLjIwNCw3LjczM3YxMy4yODloMTAgICAgYzAtNi4wMzgsNC45MDgtMTAuOTUxLDEwLjk0MS0xMC45NTFjMi45MjgsMCw1LjY3NCwxLjEzOCw3LjczOSwzLjIxYzIuMDcsMi4wNzEsMy4yMTEsNC44MiwzLjIxMSw3Ljc0MXY0NC4yODkgICAgYzAsNi4wMzItNC45MTIsMTAuOTQtMTAuOTUsMTAuOTRjLTYuMDMzLDAtMTAuOTQxLTQuOTA4LTEwLjk0MS0xMC45NFY3My4zNzhoLTEwdjI5LjMzNmMwLDYuMDMyLTQuOTEyLDEwLjk0LTEwLjk1LDEwLjk0ICAgIGMtMi42MzMsMC01LjA5NC0wLjkyOC03LjAyMS0yLjU0N2MxLjYzMS0zLjM2OCwyLjU0OC03LjE0NSwyLjU0OC0xMS4xMzFjMC00LjYzNy0yLjYyNy04LjY2Ny02LjQ2Ny0xMC42OTRWNjUuMTUyaC0xMHYyMi43MzQgICAgSDkyLjVWNzMuMzAxaC0xMHYxNC41ODVoLTguNzgxYy0xNC45MDYsMC0yNy4wMzQsMTIuMTI4LTI3LjAzNCwyNy4wMzR2MzcuOTk1YzAsMTkuMDM3LDcuOTgsMzcuNDEyLDIxLjg5Niw1MC40MTYgICAgYzE0LjEwMiwxMy4xNzksMjIuMTg5LDMxLjM5NSwyMi4xODksNDkuOTc4djE4LjIyMkg3OS4yNDV2MTUuNTM3SDYyLjM5NHYxNDUuMDQxaDE2Ljg1MnYxNS41MzdoNTMuNjY0ICAgIGMyLjQ5NywyMi41NjEsMjEuNjY5LDQwLjE2OCw0NC44ODQsNDAuMTY4aDE0OC42MTh2LTEwSDE3Ny43OTNDMTYwLjEsNDc3LjgxNCwxNDUuNDIzLDQ2NC42NzgsMTQyLjk4Nyw0NDcuNjQ2eiBNNzIuMzk0LDI5Ny4wNjggICAgaDgwLjMxNXYxMjUuMDQxSDcyLjM5NFYyOTcuMDY4eiBNODkuMjQ1LDQzMi4xMDloNzMuNDY0VjI4Ny4wNjhIODkuMjQ1di01LjUzN2gxMDUuODJ2MTU2LjExNUg4OS4yNDVWNDMyLjEwOXoiLz4mI3hhOyYjeGE7PC9nPiYjeGE7JiN4YTs8L2c+JiN4YTsmI3hhOzwvc3ZnPg==;imageBackground=#DAE8FC;" parent="1" vertex="1">
          <mxGeometry x="-757.25" y="-740" width="60" height="60" as="geometry" />
        </mxCell>
        <mxCell id="nz7CX37NrNBbY6WZYxdY-22" value="" style="shape=mxgraph.mockup.containers.marginRect;rectMarginTop=10;strokeColor=#6c8ebf;strokeWidth=1;dashed=0;rounded=1;arcSize=5;recursiveResize=0;html=1;whiteSpace=wrap;fillColor=#dae8fc;fontStyle=1" parent="1" vertex="1">
          <mxGeometry x="-262.25" y="-920" width="150" height="420" as="geometry" />
        </mxCell>
        <mxCell id="nz7CX37NrNBbY6WZYxdY-23" value="AI &amp;amp; Analysis" style="shape=rect;strokeColor=#6c8ebf;fillColor=#dae8fc;strokeWidth=1;dashed=0;rounded=1;arcSize=20;fontSize=17;spacing=2;spacingTop=-2;align=left;autosize=1;spacingLeft=4;resizeWidth=0;resizeHeight=0;perimeter=none;html=1;whiteSpace=wrap;gradientColor=#7ea6e0;" parent="nz7CX37NrNBbY6WZYxdY-22" vertex="1">
          <mxGeometry x="5" y="5" width="145" height="50" as="geometry" />
        </mxCell>
        <mxCell id="nz7CX37NrNBbY6WZYxdY-35" value="" style="image;aspect=fixed;html=1;points=[];align=center;fontSize=12;image=img/lib/azure2/databases/SQL_Database.svg;" parent="nz7CX37NrNBbY6WZYxdY-22" vertex="1">
          <mxGeometry x="45" y="70" width="60" height="80" as="geometry" />
        </mxCell>
        <mxCell id="nz7CX37NrNBbY6WZYxdY-119" value="" style="edgeStyle=orthogonalEdgeStyle;rounded=0;orthogonalLoop=1;jettySize=auto;html=1;" parent="nz7CX37NrNBbY6WZYxdY-22" source="nz7CX37NrNBbY6WZYxdY-36" target="nz7CX37NrNBbY6WZYxdY-53" edge="1">
          <mxGeometry relative="1" as="geometry">
            <Array as="points">
              <mxPoint x="75" y="210" />
              <mxPoint x="75" y="210" />
            </Array>
          </mxGeometry>
        </mxCell>
        <mxCell id="nz7CX37NrNBbY6WZYxdY-36" value="" style="image;aspect=fixed;html=1;points=[];align=center;fontSize=12;image=img/lib/azure2/ai_machine_learning/Azure_OpenAI.svg;" parent="nz7CX37NrNBbY6WZYxdY-22" vertex="1">
          <mxGeometry x="41" y="260" width="68" height="68" as="geometry" />
        </mxCell>
        <mxCell id="nz7CX37NrNBbY6WZYxdY-53" value="Azure SQL Database" style="whiteSpace=wrap;html=1;verticalAlign=middle;labelBackgroundColor=default;fontStyle=1;dashed=1;dashPattern=1 4;opacity=90;rounded=0;glass=0;shadow=0;gradientColor=none;strokeColor=#FFFFFF;" parent="nz7CX37NrNBbY6WZYxdY-22" vertex="1">
          <mxGeometry x="44" y="160" width="65" height="18" as="geometry" />
        </mxCell>
        <mxCell id="nz7CX37NrNBbY6WZYxdY-59" value="Azure OpenAI" style="whiteSpace=wrap;html=1;verticalAlign=middle;labelBackgroundColor=default;fontStyle=1;dashed=1;dashPattern=1 4;opacity=90;rounded=0;glass=0;shadow=0;gradientColor=none;strokeColor=#FFFFFF;" parent="nz7CX37NrNBbY6WZYxdY-22" vertex="1">
          <mxGeometry x="32.25" y="340" width="85.5" height="18" as="geometry" />
        </mxCell>
        <mxCell id="nz7CX37NrNBbY6WZYxdY-27" value="" style="shape=mxgraph.mockup.containers.marginRect;rectMarginTop=10;strokeColor=#6c8ebf;strokeWidth=1;dashed=0;rounded=1;arcSize=5;recursiveResize=0;html=1;whiteSpace=wrap;fillColor=#dae8fc;verticalAlign=middle;" parent="1" vertex="1">
          <mxGeometry x="-62.25" y="-920" width="150" height="420" as="geometry" />
        </mxCell>
        <mxCell id="nz7CX37NrNBbY6WZYxdY-28" value="Data Visualization and Monitoring" style="shape=rect;strokeColor=#6c8ebf;fillColor=#dae8fc;strokeWidth=1;dashed=0;rounded=1;arcSize=20;fontSize=17;spacing=2;spacingTop=-2;align=left;autosize=1;spacingLeft=4;resizeWidth=0;resizeHeight=0;perimeter=none;html=1;whiteSpace=wrap;gradientColor=#7ea6e0;" parent="nz7CX37NrNBbY6WZYxdY-27" vertex="1">
          <mxGeometry x="5" y="5" width="145" height="50" as="geometry" />
        </mxCell>
        <mxCell id="nz7CX37NrNBbY6WZYxdY-45" value="Web App" style="whiteSpace=wrap;html=1;verticalAlign=middle;labelBackgroundColor=default;fontStyle=1;dashed=1;dashPattern=1 4;opacity=90;rounded=0;glass=0;shadow=0;gradientColor=none;strokeColor=#FFFFFF;" parent="nz7CX37NrNBbY6WZYxdY-27" vertex="1">
          <mxGeometry x="44.75" y="170" width="60.5" height="18" as="geometry" />
        </mxCell>
        <mxCell id="nz7CX37NrNBbY6WZYxdY-52" value="Power BI Dashboard" style="whiteSpace=wrap;html=1;verticalAlign=middle;labelBackgroundColor=default;fontStyle=1;dashed=1;dashPattern=1 4;opacity=90;rounded=0;glass=0;shadow=0;gradientColor=none;strokeColor=#FFFFFF;" parent="nz7CX37NrNBbY6WZYxdY-27" vertex="1">
          <mxGeometry x="49.5" y="350" width="60.5" height="20" as="geometry" />
        </mxCell>
        <mxCell id="nz7CX37NrNBbY6WZYxdY-69" value="" style="edgeStyle=orthogonalEdgeStyle;rounded=0;orthogonalLoop=1;jettySize=auto;html=1;" parent="nz7CX37NrNBbY6WZYxdY-27" source="nz7CX37NrNBbY6WZYxdY-42" target="nz7CX37NrNBbY6WZYxdY-45" edge="1">
          <mxGeometry relative="1" as="geometry" />
        </mxCell>
        <mxCell id="nz7CX37NrNBbY6WZYxdY-42" value="" style="image;aspect=fixed;html=1;points=[];align=center;fontSize=12;image=img/lib/azure2/analytics/Power_BI_Embedded.svg;" parent="nz7CX37NrNBbY6WZYxdY-27" vertex="1">
          <mxGeometry x="49.5" y="270" width="51" height="68" as="geometry" />
        </mxCell>
        <mxCell id="nz7CX37NrNBbY6WZYxdY-80" value="" style="image;aspect=fixed;html=1;points=[];align=center;fontSize=12;image=img/lib/azure2/app_services/App_Services.svg;" parent="nz7CX37NrNBbY6WZYxdY-27" vertex="1">
          <mxGeometry x="44.75" y="100" width="64" height="64" as="geometry" />
        </mxCell>
        <mxCell id="NBUinHOOI57299Zdm1jr-5" value="" style="edgeStyle=orthogonalEdgeStyle;rounded=0;orthogonalLoop=1;jettySize=auto;html=1;" edge="1" parent="1" source="nz7CX37NrNBbY6WZYxdY-64" target="nz7CX37NrNBbY6WZYxdY-86">
          <mxGeometry relative="1" as="geometry" />
        </mxCell>
        <mxCell id="nz7CX37NrNBbY6WZYxdY-64" value="" style="points=[[0.35,0,0],[0.98,0.51,0],[1,0.71,0],[0.67,1,0],[0,0.795,0],[0,0.65,0]];verticalLabelPosition=bottom;sketch=0;html=1;verticalAlign=top;aspect=fixed;align=center;pointerEvents=1;shape=mxgraph.cisco19.user;fillColor=#58ECFC;strokeColor=#6c8ebf;gradientColor=#7ea6e0;" parent="1" vertex="1">
          <mxGeometry x="159" y="-670" width="50" height="50" as="geometry" />
        </mxCell>
        <mxCell id="NBUinHOOI57299Zdm1jr-6" value="" style="edgeStyle=orthogonalEdgeStyle;rounded=0;orthogonalLoop=1;jettySize=auto;html=1;" edge="1" parent="1" source="nz7CX37NrNBbY6WZYxdY-86" target="nz7CX37NrNBbY6WZYxdY-80">
          <mxGeometry relative="1" as="geometry" />
        </mxCell>
        <mxCell id="nz7CX37NrNBbY6WZYxdY-86" value="" style="image;aspect=fixed;html=1;points=[];align=center;fontSize=12;image=img/lib/azure2/other/Entra_Identity.svg;" parent="1" vertex="1">
          <mxGeometry x="150" y="-818.22" width="68" height="60.440000000000005" as="geometry" />
        </mxCell>
        <mxCell id="nz7CX37NrNBbY6WZYxdY-100" value="&lt;font style=&quot;font-size: 12px;&quot;&gt;&lt;span style=&quot;color: rgb(41, 40, 39); font-family: &amp;quot;Segoe UI&amp;quot;, &amp;quot;Segoe UI Web (West European)&amp;quot;, &amp;quot;Segoe UI&amp;quot;, -apple-system, BlinkMacSystemFont, Roboto, &amp;quot;Helvetica Neue&amp;quot;, sans-serif; font-weight: 400; text-align: start;&quot;&gt;Entra I&lt;/span&gt;&lt;span style=&quot;color: rgb(50, 49, 48); font-family: &amp;quot;Segoe UI&amp;quot;, &amp;quot;Segoe UI Web (West European)&amp;quot;, &amp;quot;Segoe UI&amp;quot;, -apple-system, BlinkMacSystemFont, Roboto, &amp;quot;Helvetica Neue&amp;quot;, sans-serif; font-weight: 400; text-align: start;&quot;&gt;dentity&lt;/span&gt;&lt;/font&gt;" style="whiteSpace=wrap;html=1;verticalAlign=middle;labelBackgroundColor=default;fontStyle=1;dashed=1;dashPattern=1 4;opacity=90;rounded=0;glass=0;shadow=0;gradientColor=none;strokeColor=#FFFFFF;" parent="1" vertex="1">
          <mxGeometry x="146.63" y="-740" width="82.25" height="18" as="geometry" />
        </mxCell>
        <mxCell id="nz7CX37NrNBbY6WZYxdY-101" value="" style="image;aspect=fixed;html=1;points=[];align=center;fontSize=12;image=img/lib/azure2/general/Resource_Groups.svg;" parent="1" vertex="1">
          <mxGeometry x="-660.25" y="-464" width="68" height="64" as="geometry" />
        </mxCell>
        <mxCell id="nz7CX37NrNBbY6WZYxdY-103" value="&lt;b style=&quot;background-color: rgb(251, 251, 251);&quot;&gt;IoT Device&lt;/b&gt;" style="whiteSpace=wrap;html=1;verticalAlign=middle;labelBackgroundColor=default;fontStyle=1;dashed=1;dashPattern=1 4;opacity=90;rounded=0;glass=0;shadow=0;gradientColor=none;strokeColor=#FFFFFF;" parent="1" vertex="1">
          <mxGeometry x="-760" y="-670" width="65.5" height="18" as="geometry" />
        </mxCell>
        <mxCell id="nz7CX37NrNBbY6WZYxdY-111" value="Healthcare Professional" style="whiteSpace=wrap;html=1;verticalAlign=middle;labelBackgroundColor=default;fontStyle=1;dashed=1;dashPattern=1 4;opacity=90;rounded=0;glass=0;shadow=0;gradientColor=none;strokeColor=#FFFFFF;" parent="1" vertex="1">
          <mxGeometry x="157.5" y="-602" width="60.5" height="18" as="geometry" />
        </mxCell>
        <mxCell id="nz7CX37NrNBbY6WZYxdY-113" value="&lt;h2 class=&quot;fxs-blade-title-titleText msportalfx-tooltip-overflow&quot; id=&quot;6b0cdcd8-eecd-41e1-b14a-268a0ea8329e&quot; aria-describedby=&quot;6b0cdcd8-eecd-41e1-b14a-268a0ea8329d&quot; style=&quot;margin: 0px 16px 0px 0px; text-wrap: nowrap; overflow: hidden; text-overflow: ellipsis; line-height: 28px; flex: 0 1 auto; color: rgb(41, 40, 39); font-family: az_ea_font, &amp;quot;Segoe UI&amp;quot;, az_font, system-ui, -apple-system, BlinkMacSystemFont, Roboto, Oxygen, Ubuntu, Cantarell, &amp;quot;Open Sans&amp;quot;, &amp;quot;Helvetica Neue&amp;quot;, sans-serif; outline: 0px !important;&quot;&gt;&lt;font style=&quot;font-size: 12px;&quot;&gt;&amp;nbsp; &amp;nbsp; &amp;nbsp;Resource gro&lt;/font&gt;&lt;span style=&quot;font-size: 12px;&quot;&gt;up&lt;/span&gt;&lt;/h2&gt;" style="whiteSpace=wrap;html=1;verticalAlign=middle;labelBackgroundColor=default;fontStyle=1;dashed=1;dashPattern=1 4;opacity=90;rounded=0;glass=0;shadow=0;gradientColor=none;strokeColor=#FFFFFF;align=center;" parent="1" vertex="1">
          <mxGeometry x="-580" y="-430" width="97.75" height="20.5" as="geometry" />
        </mxCell>
        <mxCell id="nz7CX37NrNBbY6WZYxdY-115" value="" style="edgeStyle=orthogonalEdgeStyle;rounded=0;orthogonalLoop=1;jettySize=auto;html=1;" parent="1" source="nz7CX37NrNBbY6WZYxdY-89" target="nz7CX37NrNBbY6WZYxdY-22" edge="1">
          <mxGeometry relative="1" as="geometry">
            <Array as="points">
              <mxPoint x="-292" y="-554" />
              <mxPoint x="-292" y="-700" />
            </Array>
          </mxGeometry>
        </mxCell>
        <mxCell id="nz7CX37NrNBbY6WZYxdY-117" value="" style="edgeStyle=orthogonalEdgeStyle;rounded=0;orthogonalLoop=1;jettySize=auto;html=1;" parent="1" source="nz7CX37NrNBbY6WZYxdY-35" target="nz7CX37NrNBbY6WZYxdY-27" edge="1">
          <mxGeometry relative="1" as="geometry">
            <Array as="points">
              <mxPoint x="-92" y="-810" />
              <mxPoint x="-92" y="-620" />
            </Array>
          </mxGeometry>
        </mxCell>
        <mxCell id="nz7CX37NrNBbY6WZYxdY-125" value="" style="shape=image;verticalLabelPosition=bottom;verticalAlign=top;imageAspect=0;aspect=fixed;image=data:image/svg+xml,PHN2ZyB4bWxucz0iaHR0cDovL3d3dy53My5vcmcvMjAwMC9zdmciIHZpZXdCb3g9IjAgMCAxOCAxOCIgaGVpZ2h0PSIxOCIgd2lkdGg9IjE4IiBpZD0idXVpZC1jNmMzZjc1ZS01MzY5LTQ0OGUtYjg5NS0zZjk5ZmIxMWJlYmUiPjxwYXRoIGZpbGw9IiMwMDc4ZDQiIGQ9Ik03LjQ1Ni42MDhjLS45MDItLjQxMS0xLjkwOS0uNTU5LTIuODk4LS40MTcuMDUzLjA0MS4wODYuMTA3LjA4Mi4xNzlsLS4wODIsMS40MDVjLjg3OS0uMTgzLDEuODI3LS4wNDMsMi42NS40NjkuMzM4LjIxLjYzOS40NzQuODkyLjc4MSwwLDAsLjAyNC4wMjcuMDYxLjA2OS4wOTEuMTA0LjI2LjI5OS4zMzQuNDAyLjAwNi4wMzEtLjAwNC4wNjItLjAyNi4wODQtLjAwMS4wMDEtLjAwMi4wMDItLjAwMy4wMDRsLS4wNTIuMDQ4LS43NjUuNjgxYy0uMDM5LjAzNS0uMDQyLjA5NS0uMDA3LjEzNC4wMTcuMDE5LjA0LjAzLjA2NS4wMzFsMS4xMDcuMDY1LDEuNDAyLjA4MmMuMDcyLjAwNC4xMzgtLjAyOS4xNzktLjA4My4wMjUtLjAzMy4wNDEtLjA3My4wNDQtLjExN2wuMTQ3LTIuNTEzYy4wMDMtLjA1Mi0uMDM3LS4wOTctLjA4OS0uMS0uMDI1LS4wMDEtLjA0OS4wMDctLjA2OC4wMjRsLS43NjQuNjgydi4wMDNjLS4xMDYtLjE2NC0uMjItLjMxOS0uMzQtLjQ2Ny0uNTE2LS42MzYtMS4xNTktMS4xMjItMS44NjktMS40NDVaIi8+PHBhdGggZmlsbD0iIzQ2YTBkZSIgZD0iTTQuNDQxLjE0N0wxLjkzMiwwYy0uMDUyLS4wMDMtLjA5Ny4wMzctLjEuMDktLjAwMS4wMjUuMDA3LjA0OS4wMjQuMDY4bC42ODEuNzY2aC4wMDNjLS4xNTkuMTA0LS4zMTEuMjE0LS40NTUuMzMxLS42MjkuNTA5LTEuMTExLDEuMTQzLTEuNDM2LDEuODQyLS40MjQuOTEzLS41NzgsMS45MzctLjQzNCwyLjk0Mi4wNDEtLjA1My4xMDctLjA4Ni4xNzktLjA4MmwxLjQwMi4wODJjLS4xODMtLjg4MS0uMDQzLTEuODMuNDY4LTIuNjU1LjIwOS0uMzM4LjQ3My0uNjQuNzgtLjg5MywwLDAsLjAyOS0uMDI2LjA3Mi0uMDY0LjEwNC0uMDkyLjI5Ny0uMjU5LjM5OS0uMzMyLjAzMS0uMDA2LjA2Mi4wMDQuMDg0LjAyNi4wMDEuMDAxLjAwMi4wMDIuMDAzLjAwM2wuMDQ4LjA1Mi42NzkuNzY2Yy4wMzUuMDM5LjA5NS4wNDIuMTM0LjAwOC4wMTktLjAxNy4wMy0uMDQuMDMxLS4wNjVsLjA2NC0xLjEwOS4wODItMS40MDVjLjAwNC0uMDcyLS4wMjktLjEzOC0uMDgyLS4xNzktLjAzMy0uMDI1LS4wNzMtLjA0MS0uMTE3LS4wNDRaIi8+PHBhdGggZmlsbD0iIzE1NWVhMSIgZD0iTTEwLjQxMSw1LjYxMWMuMDI1LS4zNjMuMDEzLS43My0uMDM5LTEuMDk1LS4wNDEuMDUzLS4xMDcuMDg2LS4xNzkuMDgybC0xLjQwMi0uMDgyYy4wMzguMTg2LjA2Mi4zNzQuMDcxLjU2NGwxLjU1LjUzWiIvPjxwYXRoIGZpbGw9IiM4ZGM4ZTgiIGQ9Ik0zLjU3Niw5LjYwNGwuMjcxLS4wNDksMS44NDUtLjM0M2MtLjA5NS0uMDg0LS4xNTUtLjIwNi0uMTU1LS4zNHYtLjAyNWMtLjczMy4wNTEtMS40ODctLjExOS0yLjE1OS0uNTM2LS4zMzgtLjIxLS42MzktLjQ3NC0uODkyLS43ODEsMCwwLS4wMjQtLjAyNy0uMDYxLS4wNjktLjA5MS0uMTA0LS4yNi0uMjk5LS4zMzQtLjQwMi0uMDA2LS4wMzEuMDA0LS4wNjIuMDI2LS4wODQuMDAxLS4wMDEuMDAyLS4wMDIuMDAzLS4wMDRsLjA1Mi0uMDQ4Ljc2NS0uNjgxYy4wMzktLjAzNS4wNDItLjA5NS4wMDctLjEzNC0uMDE3LS4wMTktLjA0LS4wMy0uMDY1LS4wMzFsLTEuMTA3LS4wNjUtMS40MDItLjA4MmMtLjA3Mi0uMDA0LS4xMzguMDI5LS4xNzkuMDgzLS4wMjUuMDMzLS4wNDEuMDczLS4wNDQuMTE3TDAsOC42NDVjLS4wMDMuMDUyLjAzNy4wOTcuMDg5LjEuMDI1LjAwMS4wNDktLjAwNy4wNjgtLjAyNGwuNzY0LS42ODJ2LS4wMDNjLjEwNi4xNjQuMjIuMzE5LjM0LjQ2Ny41MTYuNjM2LDEuMTU5LDEuMTIyLDEuODY5LDEuNDQ1LjAyNi4wMTIuMDUzLjAyMS4wOC4wMzMuMDI5LS4xODguMTczLS4zNDIuMzY1LS4zNzZaIi8+PGc+PHBvbHlnb24gZmlsbD0iIzg2NjFjNSIgcG9pbnRzPSI4LjI0MSA1LjM0MyA1Ljk2OCA1Ljc2NSA1Ljk2OCA4Ljg3IDguMjQxIDkuMzU1IDEwLjUyMiA4LjQ0IDEwLjUyMiA2LjEyMyA4LjI0MSA1LjM0MyIvPjxwYXRoIGZpbGw9Im5vbmUiIGQ9Ik04LjMyOCw5LjMwN2wyLjA4Mi0uODQ0Yy4wNDgtLjAxOS4wODQtLjA2MS4wOTUtLjExMXYtMi4xMDJjLS4wMDQtLjA2NC0uMDQ0LS4xMTktLjEwMy0uMTQzbC0yLjEwNi0uNzE2aC0uMDk1bC0yLjA2Ni4zODJjLS4wNjYuMDE3LS4xMTQuMDc1LS4xMTkuMTQzdjIuODFjLS4wMDIuMDczLjA0OC4xMzYuMTE5LjE1MWwyLjA5LjQzOGMuMDM1LjAwNC4wNy4wMDIuMTAzLS4wMDhaIi8+PHBhdGggZmlsbD0iIzU2NDA3ZiIgZD0iTTUuOTY4LDUuNzY1djMuMTA1bDIuMjk3LjQ4NnYtMy45OGwtMi4yOTcuMzlaTTYuOTM4LDguNjMxbC0uNjQ0LS4xMjd2LTIuMzg4bC42NDQtLjEwM3YyLjYxOVpNNy45MzksOC44MTRsLS43MzktLjExOXYtMi43M2wuNzM5LS4xMjd2Mi45NzdaIi8+PHBvbHlnb24gZmlsbD0iIzg2NjFjNSIgcG9pbnRzPSIxMy4xNiA1LjM4MyAxMC44ODcgNS44MDUgMTAuODg3IDguOTA5IDEzLjE2IDkuMzk1IDE1LjQzMyA4LjQ3MSAxNS40MzMgNi4xNjMgMTMuMTYgNS4zODMiLz48cGF0aCBmaWxsPSIjNTY0MDdmIiBkPSJNMTAuODg3LDUuODA1djMuMTA1bDIuMjgxLjQ4NnYtMy45OGwtMi4yODEuMzlaTTExLjg0OSw4LjY3bC0uNjQ0LS4xMjd2LTIuMzg4bC42NDQtLjEwM3YyLjYxOVpNMTIuODUsOC44NTRsLS43MzktLjExOXYtMi43M2wuNzM5LS4xMzV2Mi45ODVaIi8+PHBvbHlnb24gZmlsbD0iIzg2NjFjNSIgcG9pbnRzPSI1LjkxMiA5LjYyNiAzLjYzOSAxMC4wNDggMy42MzkgMTMuMTUyIDUuOTEyIDEzLjYzOCA4LjE5MyAxMi43MjIgOC4xOTMgMTAuNDA2IDUuOTEyIDkuNjI2Ii8+PHBhdGggZmlsbD0iIzU2NDA3ZiIgZD0iTTMuNjMyLDEwLjA0OHYzLjA4MWwyLjI5Ny40ODZ2LTMuOThsLTIuMjk3LjQxNFpNNC41OTMsMTIuOTIxbC0uNjQ0LS4xMzV2LTIuMzg4bC42NDQtLjExMXYyLjYzNVpNNS42MDIsMTMuMTI4bC0uNzM5LS4xMTl2LTIuNzYybC43MzktLjEyN3YzLjAwOVoiLz48cG9seWdvbiBmaWxsPSIjODY2MWM1IiBwb2ludHM9IjEwLjgxNiA5LjU5NCA4LjU0MyAxMC4wMTYgOC41NDMgMTMuMTIgMTAuODE2IDEzLjYxNCAxMy4wODkgMTIuNjkgMTMuMDg5IDEwLjM3NCAxMC44MTYgOS41OTQiLz48cGF0aCBmaWxsPSIjNTY0MDdmIiBkPSJNOC41NDMsMTAuMDE2djMuMTEybDIuMjg5LjQ4NnYtMy45OGwtMi4yODkuMzgyWk05LjUwNCwxMi44ODlsLS42NDQtLjEzNXYtMi4zODhsLjY0NC0uMTExdjIuNjM1Wk0xMC41MDYsMTMuMDY1bC0uNzM5LS4xMTl2LTIuNzNsLjczOS0uMTI3djIuOTc3WiIvPjxwb2x5Z29uIGZpbGw9IiM4NjYxYzUiIHBvaW50cz0iMTUuNzE5IDkuNjM0IDEzLjQ0NiAxMC4wNTYgMTMuNDQ2IDEzLjE2IDE1LjcxOSAxMy42NDYgMTggMTIuNzMgMTggMTAuNDE0IDE1LjcxOSA5LjYzNCIvPjxwYXRoIGZpbGw9IiM1NjQwN2YiIGQ9Ik0xMy40NDYsMTAuMDU2djMuMDczbDIuMjk3LjQ4NnYtMy45OGwtMi4yOTcuNDIyWk0xNC40MTYsMTIuOTI5bC0uNjQ0LS4xMzV2LTIuMzg4bC42NDQtLjExMXYyLjYzNVpNMTUuNDE3LDEzLjEwNGwtLjczOS0uMTE5di0yLjczbC43MzktLjEyN3YyLjk3N1oiLz48cG9seWdvbiBmaWxsPSIjODY2MWM1IiBwb2ludHM9IjguMTg1IDEzLjk1NiA1LjkxMiAxNC4zNyA1LjkxMiAxNy40NzUgOC4xODUgMTcuOTY4IDEwLjQ2NiAxNy4wNDUgMTAuNDY2IDE0LjczNiA4LjE4NSAxMy45NTYiLz48cGF0aCBmaWxsPSJub25lIiBkPSJNOC4yNzMsMTcuOTA0bDIuMDc0LS43OTZjLjA2LS4wMjEuMDk5LS4wOC4wOTUtLjE0M3YtMi4wN2MuMDEyLS4wNzYtLjAzMS0uMTQ5LS4xMDMtLjE3NWwtMi4wOTgtLjcxNmMtLjAzMS0uMDEyLS4wNjUtLjAxMi0uMDk1LDBsLTIuMDY2LjM3NGMtLjA3NC4wMTItLjEyOC4wNzYtLjEyNy4xNTF2Mi44MThjLS4wMDIuMDczLjA0OC4xMzYuMTE5LjE1MWwyLjA5LjQwNmMuMDM2LjAxMi4wNzUuMDEyLjExMSwwWiIvPjxwYXRoIGZpbGw9IiM1NjQwN2YiIGQ9Ik01LjkxMiwxNC4zN3YzLjEwNWwyLjI5Ny40OTR2LTQuMDQ0bC0yLjI5Ny40NDZaTTYuODgyLDE3LjI0NGwtLjY0NC0uMTM1di0yLjM4OGwuNjQ0LS4xMTF2Mi42MzVaTTcuODgzLDE3LjQyN2wtLjczOS0uMTE5di0yLjczOGwuNzM5LS4xMjd2Mi45ODVaIi8+PHBvbHlnb24gZmlsbD0iIzg2NjFjNSIgcG9pbnRzPSIxMy4wOTcgMTMuOTg4IDEwLjgyNCAxNC40MSAxMC44MjQgMTcuNTE0IDEzLjA5NyAxOCAxNS4zNzcgMTcuMDg1IDE1LjM3NyAxNC43NjggMTMuMDk3IDEzLjk4OCIvPjxwYXRoIGZpbGw9IiM1NjQwN2YiIGQ9Ik0xMC44MjQsMTQuNDF2My4xMDVsMi4yOTcuNDg2di0zLjk4bC0yLjI5Ny4zOVpNMTEuNzkzLDE3LjI4NGwtLjY0NC0uMTM1di0yLjM4OGwuNjQ0LS4xMTF2Mi42MzVaTTEyLjc5NSwxNy40NTlsLS43MzktLjExOXYtMi43M2wuNzM5LS4xMjd2Mi45NzdaIi8+PC9nPjwvc3ZnPg==" parent="1" vertex="1">
          <mxGeometry x="-222.25" y="-620" width="18" height="18" as="geometry" />
        </mxCell>
        <mxCell id="NBUinHOOI57299Zdm1jr-2" value="VitalGuard: AI-Powered Health Monitoring" style="whiteSpace=wrap;html=1;verticalAlign=middle;labelBackgroundColor=default;fontStyle=1;dashed=1;dashPattern=1 4;opacity=90;rounded=0;glass=0;shadow=0;strokeColor=none;fontSize=19;align=center;fillColor=none;aspect=fixed;" vertex="1" parent="1">
          <mxGeometry x="-550" y="-990" width="569.45" height="25" as="geometry" />
        </mxCell>
        <mxCell id="NBUinHOOI57299Zdm1jr-9" value="AD Authentication" style="whiteSpace=wrap;html=1;verticalAlign=middle;labelBackgroundColor=default;fontStyle=1;dashed=1;dashPattern=1 4;opacity=90;rounded=0;glass=0;shadow=0;gradientColor=none;strokeColor=#FFFFFF;" vertex="1" parent="1">
          <mxGeometry x="-620" y="-670" width="110" height="18" as="geometry" />
        </mxCell>
        <mxCell id="NBUinHOOI57299Zdm1jr-10" value="" style="image;aspect=fixed;html=1;points=[];align=center;fontSize=12;image=img/lib/azure2/identity/Managed_Identities.svg;" vertex="1" parent="1">
          <mxGeometry x="-592.25" y="-746" width="68" height="66" as="geometry" />
        </mxCell>
        <mxCell id="NBUinHOOI57299Zdm1jr-11" value="" style="image;aspect=fixed;html=1;points=[];align=center;fontSize=12;image=img/lib/azure2/identity/Managed_Identities.svg;" vertex="1" parent="1">
          <mxGeometry x="-330" y="-620" width="68" height="66" as="geometry" />
        </mxCell>
        <mxCell id="NBUinHOOI57299Zdm1jr-12" value="" style="image;aspect=fixed;html=1;points=[];align=center;fontSize=12;image=img/lib/azure2/identity/Managed_Identities.svg;" vertex="1" parent="1">
          <mxGeometry x="-330" y="-620" width="68" height="66" as="geometry" />
        </mxCell>
        <mxCell id="NBUinHOOI57299Zdm1jr-14" value="Abdelrazek Rizk" style="whiteSpace=wrap;html=1;verticalAlign=middle;labelBackgroundColor=default;fontStyle=1;dashed=1;dashPattern=1 4;opacity=90;rounded=0;glass=0;shadow=0;gradientColor=none;strokeColor=#FFFFFF;" vertex="1" parent="1">
          <mxGeometry x="-720" y="-380" width="220.25" height="18" as="geometry" />
        </mxCell>
        <mxCell id="NBUinHOOI57299Zdm1jr-15" value="&amp;nbsp;Azure Tech Leader" style="whiteSpace=wrap;html=1;verticalAlign=middle;labelBackgroundColor=default;fontStyle=1;dashed=1;dashPattern=1 4;opacity=90;rounded=0;glass=0;shadow=0;gradientColor=none;strokeColor=#FFFFFF;" vertex="1" parent="1">
          <mxGeometry x="-697.25" y="-362" width="175" height="18" as="geometry" />
        </mxCell>
      </root>
    </mxGraphModel>
  </diagram>
</mxfile>
